<?xml version="1.0" standalone="no"?>
<!DOCTYPE svg PUBLIC "-//W3C//DTD SVG 20010904//EN"
 "http://www.w3.org/TR/2001/REC-SVG-20010904/DTD/svg10.dtd">
<svg version="1.0" xmlns="http://www.w3.org/2000/svg"
 width="200.000000pt" height="65.000000pt" viewBox="0 0 200.000000 65.000000"
 preserveAspectRatio="xMidYMid meet">

<g transform="translate(0.000000,65.000000) scale(0.100000,-0.100000)"
fill="#000000" stroke="none">
<path d="M1400 571 c0 -30 14 -49 24 -32 7 10 25 9 42 -2 16 -9 24 2 24 35 0
27 -2 28 -45 28 -43 0 -45 -1 -45 -29z"/>
<path d="M403 573 c9 -2 25 -2 35 0 9 3 1 5 -18 5 -19 0 -27 -2 -17 -5z"/>
<path d="M543 573 c9 -2 23 -2 30 0 6 3 -1 5 -18 5 -16 0 -22 -2 -12 -5z"/>
<path d="M348 563 c7 -3 16 -2 19 1 4 3 -2 6 -13 5 -11 0 -14 -3 -6 -6z"/>
<path d="M595 560 c-4 -6 -10 -8 -15 -5 -5 3 -12 0 -16 -6 -5 -8 -3 -9 6 -4
10 6 12 4 7 -8 -4 -11 -1 -17 7 -17 8 0 20 -2 28 -3 7 -2 10 -2 6 0 -4 2 -4
12 -1 21 6 15 5 15 -10 3 -15 -12 -17 -12 -11 2 3 9 13 18 22 20 16 4 16 5 0
6 -9 0 -20 -4 -23 -9z"/>
<path d="M390 550 c0 -5 7 -7 15 -4 8 4 15 8 15 10 0 2 -7 4 -15 4 -8 0 -15
-4 -15 -10z"/>
<path d="M431 548 c-1 -15 8 -18 49 -18 41 0 50 3 49 18 0 10 -3 12 -6 5 -2
-7 -9 -13 -14 -13 -6 0 -7 6 -3 13 6 9 4 9 -8 -1 -13 -10 -17 -10 -21 0 -4 10
-6 10 -6 1 -1 -7 -7 -13 -15 -13 -8 0 -17 6 -19 13 -3 7 -6 5 -6 -5z"/>
<path d="M541 544 c0 -11 3 -14 6 -6 3 7 2 16 -1 19 -3 4 -6 -2 -5 -13z"/>
<path d="M260 540 c-8 -5 -10 -10 -5 -10 6 0 17 5 25 10 8 5 11 10 5 10 -5 0
-17 -5 -25 -10z"/>
<path d="M350 535 c0 -10 -4 -13 -12 -8 -19 11 -39 13 -32 2 3 -5 9 -7 14 -4
5 3 11 1 15 -5 3 -5 10 -10 15 -10 12 0 20 29 10 35 -6 4 -10 -1 -10 -10z"/>
<path d="M635 530 c3 -5 10 -10 16 -10 5 0 9 5 9 10 0 6 -7 10 -16 10 -8 0
-12 -4 -9 -10z"/>
<path d="M1310 513 c0 -14 -6 -23 -15 -23 -9 0 -15 -10 -15 -26 0 -19 4 -25
15 -20 8 3 14 2 14 -2 -4 -22 3 -32 21 -32 13 0 22 -9 26 -27 14 -67 26 -67
38 0 6 33 5 37 -14 37 -11 0 -20 4 -20 9 0 5 -9 11 -19 14 -15 3 -19 13 -19
37 1 30 3 31 37 28 26 -2 37 1 39 12 2 12 -7 15 -43 15 -40 0 -45 -3 -45 -22z"/>
<path d="M1490 518 c-1 -21 -2 -22 -14 -5 -16 21 -26 22 -26 1 0 -8 5 -12 10
-9 6 3 10 1 10 -4 0 -6 -5 -11 -11 -11 -5 0 -7 -5 -4 -10 4 -6 11 -8 16 -5 16
11 9 -7 -8 -21 -16 -12 -9 -13 50 -14 65 0 67 -1 67 -25 0 -14 5 -25 10 -25 6
0 10 -11 10 -25 0 -21 5 -25 30 -25 25 0 30 4 30 25 0 23 3 25 50 25 47 0 50
2 50 25 0 23 -4 25 -45 25 -41 0 -45 2 -45 25 0 23 -4 25 -45 25 -41 0 -45 2
-45 25 0 23 -4 25 -45 25 -40 0 -45 -3 -45 -22z m163 -90 c7 -22 -4 -38 -28
-38 -13 0 -25 6 -28 13 -7 21 4 37 28 37 13 0 25 -6 28 -12z"/>
<path d="M205 512 c-115 -70 -134 -185 -45 -266 43 -39 99 -71 108 -62 3 3 0
6 -7 6 -9 0 -9 4 1 14 11 12 14 12 21 0 11 -19 31 -18 23 2 -5 12 -1 14 17 9
12 -3 1 6 -24 19 -105 57 -129 133 -63 206 19 21 45 42 56 46 19 6 20 7 4 16
-9 5 -14 14 -10 20 4 6 -2 5 -15 -2 -17 -9 -20 -14 -11 -25 8 -10 6 -17 -11
-29 -58 -40 -77 -121 -38 -170 11 -14 16 -26 10 -26 -5 0 -9 -9 -8 -19 1 -15
5 -17 22 -11 34 13 48 -3 24 -24 -21 -17 -23 -17 -63 11 -55 38 -91 109 -81
160 7 36 61 101 110 130 11 6 18 12 15 12 -3 1 -19 -7 -35 -17z m80 -20 c-3
-3 -11 0 -18 7 -9 10 -8 11 6 5 10 -3 15 -9 12 -12z m-40 -232 c3 -5 -1 -10
-10 -10 -9 0 -13 5 -10 10 3 6 8 10 10 10 2 0 7 -4 10 -10z"/>
<path d="M388 523 c7 -3 16 -2 19 1 4 3 -2 6 -13 5 -11 0 -14 -3 -6 -6z"/>
<path d="M743 519 c14 -8 16 -14 6 -25 -8 -10 -8 -14 0 -14 6 0 11 -7 11 -15
0 -8 -4 -15 -8 -15 -14 0 -31 22 -26 35 3 7 1 16 -5 20 -7 4 -8 0 -4 -11 5
-13 3 -16 -10 -11 -9 3 4 -13 28 -37 35 -33 45 -50 45 -75 0 -48 -26 -89 -78
-122 -25 -16 -40 -29 -33 -29 7 0 9 -5 6 -10 -5 -8 -11 -7 -21 1 -12 10 -13 9
-7 -7 6 -17 5 -17 -10 -6 -9 8 -22 12 -29 9 -8 -4 -7 -6 5 -6 15 -1 22 -12 18
-33 0 -5 6 -8 14 -8 10 0 12 6 8 17 -6 16 -5 16 10 4 10 -8 20 -11 24 -7 3 3
1 6 -5 6 -25 0 -11 16 16 18 21 1 23 0 12 -8 -8 -5 -10 -10 -4 -10 15 0 96 54
121 81 47 52 55 114 20 171 -22 36 -92 97 -112 97 -5 0 -2 -4 8 -10z m70 -58
c38 -42 52 -85 42 -129 -8 -39 -64 -105 -82 -98 -8 3 -11 2 -8 -3 8 -14 -14
-24 -51 -26 -34 -1 -39 11 -14 32 21 17 33 16 26 -3 -3 -9 -2 -12 5 -9 5 4 8
12 6 18 -2 7 9 27 25 46 25 28 29 41 27 79 -3 37 0 47 16 53 20 7 20 8 0 8
-17 1 -17 3 -5 11 12 8 11 10 -7 10 -17 0 -21 -4 -16 -17 5 -15 3 -16 -7 -6
-11 10 -11 15 1 29 11 13 11 18 2 21 -7 3 -13 9 -13 14 0 18 19 8 53 -30z"/>
<path d="M768 258 c9 -9 15 -9 24 0 9 9 7 12 -12 12 -19 0 -21 -3 -12 -12z"/>
<path d="M1415 510 c-3 -11 -12 -19 -18 -17 -7 1 -13 -10 -15 -25 -3 -24 0
-28 22 -28 25 0 38 20 14 20 -8 1 -6 6 4 14 13 10 15 15 6 24 -9 9 -9 12 0 12
7 0 12 5 12 10 0 18 -18 11 -25 -10z"/>
<path d="M1220 459 c0 -20 4 -29 9 -23 15 15 17 47 4 51 -9 3 -13 -6 -13 -28z"/>
<path d="M1351 474 c0 -11 3 -14 6 -6 3 7 2 16 -1 19 -3 4 -6 -2 -5 -13z"/>
<path d="M190 470 c0 -5 7 -10 15 -10 8 0 15 5 15 10 0 6 -7 10 -15 10 -8 0
-15 -4 -15 -10z"/>
<path d="M169 441 c11 -7 10 -10 -5 -13 -18 -4 -17 -4 2 -10 13 -3 25 1 31 11
9 14 6 17 -16 19 -18 1 -22 -1 -12 -7z"/>
<path d="M1150 417 c0 -12 35 -17 42 -6 2 2 1 3 -1 2 -2 -1 -12 2 -22 8 -14 7
-19 6 -19 -4z"/>
<path d="M1241 421 c-11 -7 -10 -11 5 -19 14 -7 24 -6 37 3 16 11 16 13 1 19
-20 8 -26 7 -43 -3z"/>
<path d="M1222 370 c0 -19 2 -27 5 -17 2 9 2 25 0 35 -3 9 -5 1 -5 -18z"/>
<path d="M1299 393 c0 -5 -2 -18 -5 -30 -2 -13 1 -23 6 -23 6 0 10 14 10 30 0
26 -9 44 -11 23z"/>
<path d="M1321 340 c2 -56 13 -66 23 -19 10 50 7 69 -9 69 -11 0 -14 -12 -14
-50z"/>
<path d="M1522 365 c0 -16 2 -22 5 -12 2 9 2 23 0 30 -3 6 -5 -1 -5 -18z"/>
<path d="M1542 365 c0 -16 2 -22 5 -12 2 9 2 23 0 30 -3 6 -5 -1 -5 -18z"/>
<path d="M1260 370 c-9 -6 -10 -10 -3 -10 6 0 15 5 18 10 8 12 4 12 -15 0z"/>
<path d="M1480 360 c0 -16 -7 -20 -38 -20 l-38 0 -1 -57 c0 -36 2 -48 6 -32 4
19 12 25 28 24 12 -1 20 2 17 7 -3 4 2 5 10 2 8 -3 17 -15 19 -27 2 -12 4 11
5 51 0 39 -1 72 -3 72 -3 0 -5 -9 -5 -20z m-30 -45 c0 -8 -4 -15 -10 -15 -5 0
-7 7 -4 15 4 8 8 15 10 15 2 0 4 -7 4 -15z"/>
<path d="M1562 360 c0 -14 2 -19 5 -12 2 6 2 18 0 25 -3 6 -5 1 -5 -13z"/>
<path d="M180 260 c0 -5 5 -10 10 -10 6 0 10 5 10 10 0 6 -4 10 -10 10 -5 0
-10 -4 -10 -10z"/>
<path d="M1428 243 c6 -2 18 -2 25 0 6 3 1 5 -13 5 -14 0 -19 -2 -12 -5z"/>
<path d="M340 195 c-9 -10 -9 -15 -1 -15 6 0 11 4 11 9 0 5 8 12 18 14 14 4
14 5 1 6 -9 0 -22 -6 -29 -14z"/>
<path d="M383 193 c-7 -2 -13 -9 -13 -15 0 -7 4 -7 13 0 6 5 23 12 37 15 l25
4 -25 1 c-14 0 -31 -2 -37 -5z"/>
<path d="M558 193 c7 -3 16 -2 19 1 4 3 -2 6 -13 5 -11 0 -14 -3 -6 -6z"/>
<path d="M410 172 c0 -4 9 -8 20 -9 11 -1 20 2 20 5 0 4 -9 8 -20 9 -11 1 -20
-2 -20 -5z"/>
<path d="M460 169 c0 -5 5 -7 10 -4 6 3 10 2 10 -4 0 -5 -17 -12 -37 -14 -21
-2 -4 -4 39 -4 l76 0 -19 20 c-10 11 -22 17 -26 13 -4 -4 -1 -11 7 -16 12 -8
11 -10 -6 -10 -12 0 -24 7 -28 15 -6 17 -26 20 -26 4z"/>
<path d="M570 170 c0 -5 7 -7 15 -4 8 4 15 8 15 10 0 2 -7 4 -15 4 -8 0 -15
-4 -15 -10z"/>
<path d="M318 163 c7 -3 16 -2 19 1 4 3 -2 6 -13 5 -11 0 -14 -3 -6 -6z"/>
<path d="M358 153 c6 -2 18 -2 25 0 6 3 1 5 -13 5 -14 0 -19 -2 -12 -5z"/>
<path d="M598 153 c7 -3 16 -2 19 1 4 3 -2 6 -13 5 -11 0 -14 -3 -6 -6z"/>
<path d="M1040 100 c0 -29 4 -40 15 -40 11 0 15 11 15 40 0 29 -4 40 -15 40
-11 0 -15 -11 -15 -40z"/>
<path d="M1113 133 c4 -3 2 -12 -4 -19 -7 -8 -7 -14 1 -19 8 -5 8 -11 -1 -21
-14 -17 -5 -18 23 -3 21 11 21 12 3 25 -10 8 -13 14 -7 14 7 0 12 7 12 15 0 8
-7 15 -17 15 -9 0 -13 -3 -10 -7z"/>
<path d="M1183 133 c-20 -7 -15 -51 6 -63 28 -14 36 -13 21 5 -7 8 -10 26 -8
40 5 25 3 27 -19 18z"/>
<path d="M1257 115 c3 -14 0 -32 -7 -40 -11 -13 -10 -14 11 -7 29 11 35 65 8
70 -13 2 -15 -3 -12 -23z"/>
<path d="M1320 100 c0 -32 4 -40 18 -40 14 0 17 7 14 40 -3 26 -9 40 -18 40
-10 0 -14 -12 -14 -40z"/>
<path d="M1440 100 c0 -29 4 -40 15 -40 11 0 15 11 15 40 0 29 -4 40 -15 40
-11 0 -15 -11 -15 -40z"/>
<path d="M1530 99 c12 -22 26 -39 32 -37 14 5 61 78 51 78 -5 0 -16 -15 -26
-32 l-19 -33 -13 33 c-8 17 -21 32 -30 32 -13 0 -12 -6 5 -41z"/>
<path d="M1660 100 c0 -29 4 -40 15 -40 11 0 15 11 15 40 0 29 -4 40 -15 40
-11 0 -15 -11 -15 -40z"/>
<path d="M1753 105 c-26 -39 -27 -45 -13 -45 6 0 10 6 10 14 0 8 8 24 19 37
l18 23 14 -37 c7 -20 19 -37 26 -37 17 0 16 2 -4 45 -21 44 -42 44 -70 0z"/>
<path d="M1385 70 c-3 -5 1 -10 9 -10 9 0 16 5 16 10 0 6 -4 10 -9 10 -6 0
-13 -4 -16 -10z"/>
</g>
</svg>
