<?xml version="1.0" standalone="no"?>
<!DOCTYPE svg PUBLIC "-//W3C//DTD SVG 20010904//EN"
 "http://www.w3.org/TR/2001/REC-SVG-20010904/DTD/svg10.dtd">
<svg version="1.0" xmlns="http://www.w3.org/2000/svg"
 width="800.000000pt" height="533.000000pt" viewBox="0 0 800.000000 533.000000"
 preserveAspectRatio="xMidYMid meet">

<g transform="translate(0.000000,533.000000) scale(0.100000,-0.100000)"
fill="#000000" stroke="none">
<path d="M0 4545 l0 -786 205 3 c113 2 205 0 205 -4 0 -5 4 -8 9 -8 4 0 14 21
20 48 7 26 17 62 22 80 6 18 8 45 4 61 -7 32 9 51 28 32 6 -6 28 -11 49 -11
52 0 51 -28 -3 -70 -48 -38 -51 -73 -7 -78 35 -4 109 21 156 53 20 14 46 25
57 25 12 0 59 16 105 36 47 19 117 46 155 58 39 13 93 35 120 49 l50 26 -46
20 c-26 12 -52 28 -59 36 -7 8 -19 15 -26 15 -8 0 -14 6 -14 14 0 20 -20 24
-51 13 -21 -8 -30 -6 -47 11 -12 12 -30 22 -40 22 -10 0 -22 3 -26 7 -4 4 -34
9 -67 10 -58 3 -62 1 -102 -37 -22 -22 -45 -40 -49 -40 -4 0 -8 -9 -8 -21 0
-11 -4 -17 -10 -14 -5 3 -10 22 -10 41 0 26 3 33 13 28 9 -6 9 -4 1 7 -6 8
-14 28 -17 46 -10 53 -47 101 -77 100 -23 -2 -25 2 -28 48 -5 76 24 169 69
222 22 24 39 50 39 57 0 10 15 13 55 11 61 -4 69 2 56 37 -7 20 -15 23 -67 23
l-59 0 3 40 c6 87 66 318 96 370 41 72 106 193 106 199 0 3 -182 6 -405 6
l-405 0 0 -785z m606 -532 c-10 -10 -19 5 -10 18 6 11 8 11 12 0 2 -7 1 -15
-2 -18z m-19 -35 c-3 -8 -6 -5 -6 6 -1 11 2 17 5 13 3 -3 4 -12 1 -19z"/>
<path d="M2220 5322 c0 -4 4 -12 9 -17 5 -6 12 -19 15 -30 4 -16 1 -21 -13
-22 -10 -1 -31 -13 -46 -27 -25 -23 -27 -29 -17 -51 6 -14 30 -45 52 -69 22
-24 40 -46 40 -50 0 -4 9 -20 21 -35 17 -23 19 -33 10 -49 -10 -18 -15 -20
-37 -11 -29 10 -28 14 -8 -51 5 -16 3 -19 -10 -14 -9 3 -16 12 -16 20 0 8 -5
14 -11 14 -6 0 -9 6 -6 13 3 7 -6 23 -19 36 -13 13 -24 29 -24 37 0 16 -21 19
-35 5 -6 -5 -18 -11 -28 -13 -17 -3 -17 -4 -2 -23 11 -14 18 -16 21 -7 8 18
37 15 30 -3 -3 -9 0 -15 9 -15 8 0 15 -8 15 -19 0 -26 -50 -35 -87 -16 -15 8
-33 15 -40 15 -6 0 -30 21 -52 46 -26 30 -46 44 -56 40 -21 -8 -19 -63 4 -87
11 -12 22 -37 26 -57 4 -21 12 -44 20 -52 7 -8 15 -28 19 -45 4 -16 9 -38 12
-48 5 -15 2 -16 -20 -7 -32 12 -41 -2 -17 -24 14 -13 20 -14 23 -5 2 7 10 9
16 5 15 -9 16 -42 2 -51 -5 -3 -10 -16 -10 -28 0 -12 -7 -35 -15 -51 -8 -15
-15 -36 -15 -46 0 -9 -9 -40 -21 -68 -17 -40 -29 -54 -62 -70 -75 -35 -130
-54 -319 -107 -64 -18 -98 -51 -98 -95 0 -50 18 -55 195 -56 129 0 167 -3 186
-15 13 -9 37 -19 53 -23 45 -11 210 -92 225 -110 22 -26 4 -32 -34 -12 -44 24
-69 15 -61 -21 7 -35 -12 -60 -44 -59 -16 1 -25 -4 -25 -14 0 -15 -9 -29 -47
-71 -10 -10 -15 -19 -12 -19 3 0 -1 -7 -10 -15 -8 -8 -20 -15 -27 -15 -35 0 7
-11 96 -24 55 -8 150 -33 211 -54 180 -64 281 -128 379 -243 39 -46 56 -56
166 -100 67 -27 151 -64 186 -83 35 -19 63 -29 64 -22 0 6 5 0 10 -13 5 -14
89 -163 186 -333 142 -248 182 -312 210 -329 42 -26 39 -31 -12 -19 -26 6 -52
22 -73 45 -32 35 -33 35 -41 13 -9 -24 11 -66 111 -237 41 -71 51 -136 23
-147 -23 -9 -18 -30 13 -54 l27 -21 -33 18 c-29 16 -34 16 -42 3 -5 -8 -67
-116 -138 -240 -92 -160 -138 -231 -161 -247 -37 -25 -43 -26 -427 -53 -258
-18 -295 -18 -326 -6 -34 15 -79 66 -58 66 6 0 15 -11 20 -25 10 -26 24 -32
35 -15 3 6 -1 7 -9 4 -11 -4 -16 0 -16 14 0 23 -25 46 -40 37 -5 -3 -10 1 -10
9 0 9 5 16 12 16 6 0 8 3 5 6 -4 4 -14 1 -23 -7 -16 -13 -16 -12 -5 10 9 17
10 26 2 34 -6 6 -11 18 -11 27 0 13 1 13 10 0 13 -21 12 -6 -2 25 -6 14 -15
25 -20 25 -5 0 -4 -8 1 -18 6 -11 6 -24 0 -33 -6 -10 -9 -11 -9 -1 0 7 -7 12
-16 10 -10 -2 -19 4 -21 12 -4 12 -2 12 5 2 7 -11 11 -11 19 0 6 7 9 21 8 30
-2 10 2 15 10 12 18 -7 31 36 14 47 -8 4 -16 3 -20 -2 -4 -6 -9 -4 -13 6 -3 9
-9 14 -14 11 -4 -2 -14 5 -21 17 -11 18 -11 20 0 10 24 -24 40 -16 28 14 l-10
28 21 -22 c24 -27 40 -29 40 -7 0 11 -6 14 -17 10 -17 -6 -17 -5 0 8 21 16 22
32 2 40 -21 8 -13 41 17 73 14 16 23 34 21 41 -3 6 0 12 6 12 15 0 14 -43 -1
-59 -11 -11 -10 -12 0 -6 11 6 13 -1 10 -31 -1 -22 -7 -42 -13 -46 -6 -5 -5
-8 3 -8 7 0 10 -5 6 -12 -4 -7 -3 -8 4 -4 14 9 15 5 3 -26 -6 -17 -5 -29 5
-43 8 -10 14 -14 14 -8 0 7 -5 15 -10 18 -8 5 -7 11 1 21 6 8 8 14 4 14 -5 0
-1 8 8 18 11 12 33 19 64 21 70 3 66 11 -6 11 -44 0 -60 -3 -55 -11 4 -7 2
-10 -5 -8 -9 3 -12 94 -13 359 0 195 -4 342 -8 325 -4 -16 -8 -24 -9 -17 -1 8
-6 10 -13 6 -8 -5 -7 0 2 11 11 14 12 19 3 22 -7 3 -13 12 -14 21 0 14 -2 13
-9 -3 -8 -18 -9 -18 -9 -2 -1 10 -6 15 -11 12 -6 -4 -8 -11 -5 -16 10 -15 -1
-10 -15 7 -11 12 -11 15 1 12 9 -2 13 4 12 17 -1 20 -1 20 13 1 8 -11 14 -18
15 -15 7 48 6 59 -4 52 -6 -4 5 16 25 43 26 35 34 54 27 61 -7 7 1 16 25 27
31 15 56 16 186 10 149 -7 150 -7 150 15 0 15 -6 21 -21 21 -11 0 -18 4 -14 9
9 16 -16 25 -27 10 -8 -11 -9 -10 -4 4 3 9 1 17 -5 17 -6 0 -8 9 -4 19 4 14 0
21 -14 26 -12 3 -25 3 -31 0 -5 -3 -10 3 -10 14 0 12 5 21 10 21 18 0 11 18
-10 25 -11 3 -20 13 -20 22 0 8 -6 13 -12 11 -14 -5 -41 39 -33 52 3 5 -15 30
-41 56 -25 26 -50 58 -55 71 -5 13 -14 23 -21 23 -7 0 -22 14 -33 30 -11 17
-42 45 -70 62 -44 27 -47 32 -32 43 21 15 22 29 1 21 -10 -4 -13 -2 -8 6 5 7
0 9 -14 6 -12 -4 -22 -2 -22 3 0 6 -5 15 -10 22 -6 7 -16 20 -23 30 -7 10 -24
18 -37 18 -56 2 -70 9 -71 37 -1 17 -3 20 -6 10 -2 -10 -13 -18 -24 -18 -10 0
-19 -5 -19 -10 0 -6 -10 -8 -22 -5 -13 3 -32 6 -43 8 -11 1 -26 6 -32 10 -8 5
-13 3 -13 -4 0 -12 -39 -9 -74 6 -16 7 -18 4 -12 -26 5 -25 4 -30 -3 -19 -6 8
-11 11 -11 6 0 -4 -11 -1 -25 8 -16 11 -25 12 -25 5 0 -8 -5 -7 -16 2 -9 8
-27 12 -40 11 -13 -2 -44 11 -75 33 -53 37 -80 41 -38 6 24 -20 24 -20 2 -14
-15 3 -23 1 -23 -7 0 -10 -4 -9 -16 1 -9 7 -22 14 -28 15 -7 1 -33 14 -57 30
-24 15 -45 27 -47 26 -1 -2 -16 5 -33 13 -41 22 -167 45 -242 45 -68 0 -112
-23 -142 -73 -23 -38 -26 -105 -7 -142 14 -28 14 -29 -1 -16 -9 7 -28 37 -42
65 -58 118 -18 223 96 258 39 11 42 11 259 -28 14 -2 19 -1 13 2 -18 8 -16 39
2 58 8 8 18 35 21 59 6 40 4 46 -15 52 -11 3 -26 3 -32 -1 -6 -3 -34 -8 -61
-10 -27 -2 -68 -13 -91 -25 -23 -12 -54 -28 -69 -35 -14 -8 -38 -14 -52 -14
-15 0 -29 -6 -32 -13 -3 -8 -18 -14 -34 -15 -16 0 -42 -10 -57 -20 -15 -11
-46 -23 -68 -27 -52 -8 -125 -35 -125 -46 0 -5 -10 -9 -22 -9 -13 0 -38 -9
-56 -20 -17 -11 -53 -25 -78 -31 l-47 -12 6 -56 c7 -64 46 -175 110 -311 64
-138 87 -215 122 -421 27 -156 32 -181 53 -254 20 -71 76 -223 86 -232 11 -11
56 28 56 48 0 18 2 19 15 9 17 -14 34 -5 131 71 55 44 62 54 68 94 11 70 60
207 122 335 31 65 55 123 53 129 -3 7 -52 -33 -111 -89 -147 -138 -243 -275
-275 -389 -2 -8 -6 -11 -10 -7 -3 3 -1 32 6 63 14 64 17 72 55 156 14 32 26
69 26 82 0 14 5 25 10 25 6 0 10 7 10 15 0 8 9 20 20 27 11 7 20 20 20 29 0 8
27 55 61 104 35 53 58 96 56 106 -3 10 2 20 12 24 15 6 15 7 0 18 -12 9 -14
18 -8 34 7 19 11 21 37 11 18 -7 28 -17 25 -25 -6 -15 13 -18 22 -3 7 11 172
12 220 1 27 -6 28 -8 11 -17 -15 -9 -5 -11 45 -9 35 1 70 0 77 -2 18 -7 70
-89 80 -126 7 -27 12 -32 34 -29 23 3 26 -1 31 -40 5 -36 0 -55 -28 -113 -19
-38 -46 -82 -60 -97 -14 -15 -25 -30 -25 -34 0 -13 -42 -43 -70 -49 -16 -3
-34 -13 -41 -21 -6 -8 -21 -14 -33 -14 -18 0 -16 -3 12 -20 17 -11 32 -25 32
-32 -1 -21 -49 -70 -62 -62 -8 5 -9 0 -5 -15 4 -17 1 -21 -11 -20 -23 3 -52
-11 -52 -24 0 -6 12 -21 27 -33 l27 -22 -54 -7 c-57 -8 -110 -29 -110 -44 0
-12 -61 -3 -78 11 -9 8 -12 4 -12 -16 0 -44 -116 -146 -166 -146 -16 0 -87
-35 -127 -62 -35 -25 -76 -30 -104 -12 -22 14 -22 13 -13 -12 9 -22 8 -25 -4
-21 -10 4 -13 1 -9 -9 3 -7 1 -14 -5 -14 -6 0 -8 -8 -6 -18 5 -23 -50 -82 -78
-82 -27 0 -88 -22 -88 -31 0 -4 11 -21 25 -37 29 -35 32 -62 7 -62 -9 0 -23
-9 -29 -20 -7 -10 -32 -25 -55 -32 -23 -7 -50 -19 -60 -28 -34 -31 -44 -37
-73 -44 -60 -14 -135 -49 -135 -62 0 -8 -4 -14 -10 -14 -19 0 -10 -26 19 -54
25 -24 40 -29 97 -32 91 -6 143 20 261 129 97 89 244 187 280 187 23 0 23 -2
23 -128 0 -141 -14 -233 -41 -272 -32 -47 -99 -162 -99 -172 0 -5 4 -6 10 -3
6 3 7 -1 4 -9 -3 -9 -10 -14 -14 -11 -5 3 -11 1 -15 -5 -6 -10 6 -14 37 -11
29 3 106 -40 132 -74 31 -40 33 -61 6 -68 -11 -3 -20 -13 -20 -22 0 -9 -7 -16
-17 -14 -51 5 -62 -2 -89 -51 -19 -35 -35 -52 -53 -57 -34 -7 -117 -55 -160
-92 -33 -27 -34 -30 -22 -59 18 -42 86 -76 135 -67 19 4 42 3 50 -2 15 -8 14
-14 -7 -53 -13 -25 -30 -45 -38 -46 -8 0 -173 -2 -366 -2 l-353 -2 0 -380 0
-380 4000 0 4000 0 0 380 0 381 -547 -1 c-530 -1 -547 -2 -586 -22 -43 -21
-66 -26 -162 -32 -33 -3 -68 -8 -78 -11 -27 -11 -74 2 -111 30 -18 14 -35 22
-39 19 -3 -3 -11 3 -18 15 -10 14 -17 17 -26 10 -19 -16 -1165 -12 -1175 4 -7
11 -12 -6 -11 -40 1 -7 -3 -11 -7 -8 -4 3 -17 -17 -29 -43 -25 -56 -39 -75
-66 -89 -40 -20 -405 -105 -427 -99 -13 3 -51 32 -84 64 -52 48 -80 90 -170
250 -115 207 -123 238 -45 187 31 -21 41 -34 41 -54 0 -15 4 -31 9 -36 5 -6
21 -32 36 -60 37 -67 86 -145 92 -145 3 0 -5 17 -18 38 -64 108 -89 162 -89
197 0 37 40 134 162 395 27 57 45 106 40 108 -6 2 -8 11 -5 22 5 19 -2 22 -65
35 -18 4 -30 10 -27 15 6 10 -23 107 -34 115 -5 3 -19 -15 -31 -39 -23 -49
-83 -108 -133 -132 -28 -14 -45 -43 -132 -221 -84 -173 -105 -210 -135 -229
-28 -19 -86 -32 -289 -65 -179 -30 -261 -39 -279 -33 -14 5 -25 12 -24 17 4
12 -23 58 -138 242 -138 220 -143 231 -137 270 3 17 67 143 142 279 75 136
134 253 132 259 -2 7 0 20 5 30 7 14 4 17 -14 19 -13 1 6 4 42 8 l65 6 -34 13
c-45 18 -143 71 -156 83 -5 6 15 -2 45 -17 30 -15 83 -38 118 -51 62 -24 68
-24 325 -20 231 4 317 12 317 31 0 2 -17 38 -39 78 -60 116 -61 151 -4 153 28
1 32 -3 38 -35 10 -51 63 -151 80 -151 20 0 19 2 -11 62 -14 29 -27 69 -28 90
0 21 -5 38 -10 38 -5 0 -3 6 3 14 10 12 1 18 -61 36 -102 31 -200 84 -248 136
l-41 44 -247 8 c-208 6 -252 10 -274 24 -16 11 -89 130 -202 330 -184 328
-192 348 -162 406 14 27 215 347 284 451 20 30 36 64 37 75 2 32 42 48 105 41
30 -3 150 -23 265 -45 155 -28 213 -35 223 -27 9 7 16 7 20 0 4 -5 24 -16 45
-22 69 -23 94 -55 188 -242 49 -99 91 -179 94 -179 3 0 -1 12 -8 28 -7 15 -22
56 -31 92 -10 36 -22 74 -27 85 -21 49 -48 148 -43 156 14 23 32 2 61 -74 17
-45 34 -102 37 -127 4 -24 10 -49 15 -55 4 -5 13 -37 20 -70 7 -33 16 -72 21
-88 5 -16 5 -25 -1 -21 -14 8 -11 0 18 -58 22 -41 28 -66 27 -113 -1 -69 -10
-220 -13 -220 -2 0 -4 -7 -6 -16 -2 -10 8 -22 24 -30 14 -7 27 -14 29 -15 3
-2 -70 -149 -85 -171 -5 -7 -8 41 -8 105 1 64 -1 127 -3 140 -4 22 -4 22 -21
3 -10 -11 -33 -51 -52 -88 -18 -37 -39 -74 -46 -81 -7 -8 -11 -18 -8 -23 4 -5
1 -9 -5 -9 -6 0 -9 -4 -6 -9 8 -13 -4 -42 -15 -36 -10 7 -32 -32 -25 -43 3 -5
-3 -15 -12 -23 -64 -54 -75 -59 -128 -59 -50 0 -53 -1 -43 -18 21 -33 102 -80
192 -111 154 -54 132 -71 280 224 70 139 127 257 127 260 0 3 -5 3 -11 -1 -8
-4 -8 0 0 15 13 23 9 26 -19 11 -20 -10 -25 8 -50 190 -14 99 -21 124 -92 330
-79 229 -82 240 -74 303 l7 53 77 -1 c42 0 80 -4 84 -10 5 -6 8 -5 8 3 0 6 5
12 11 12 6 0 -12 -42 -40 -92 -73 -136 -81 -152 -76 -156 2 -2 20 8 41 22 l38
26 17 -43 c39 -97 148 -317 153 -309 3 5 -24 73 -59 152 -90 196 -90 187 35
416 59 108 97 189 94 198 -4 10 3 19 19 27 21 9 59 3 223 -35 116 -26 209 -53
224 -64 14 -11 41 -56 61 -101 41 -92 55 -112 64 -90 4 12 197 14 1350 11
l1345 -2 0 785 0 785 -2394 0 c-1467 0 -2397 -4 -2401 -9 -3 -5 -1 -12 3 -15
13 -8 3 -53 -15 -67 -11 -10 -27 -5 -81 22 -37 19 -70 35 -73 37 -4 2 55 -59
130 -135 135 -136 281 -316 281 -348 0 -39 -83 -165 -109 -165 -5 0 -20 15
-32 33 -13 17 -38 49 -56 70 -18 20 -33 43 -33 50 0 7 -20 37 -45 66 -25 29
-65 84 -90 122 -25 38 -58 84 -75 103 -17 18 -47 55 -68 82 -20 28 -57 74 -82
102 l-45 52 -97 0 c-59 0 -98 -4 -98 -10 0 -5 5 -10 10 -10 6 0 10 -9 10 -20
0 -30 -39 -25 -77 10 l-32 30 -155 0 c-86 0 -156 -4 -156 -8z m1511 -475 c20
-44 26 -151 10 -176 -7 -10 -14 -5 -33 22 -32 47 -90 94 -155 124 -29 13 -53
31 -53 39 0 14 46 103 83 160 l21 31 54 -79 c29 -44 62 -98 73 -121z m-1434
51 c-3 -8 -6 -5 -6 6 -1 11 2 17 5 13 3 -3 4 -12 1 -19z m1660 -1060 c-3 -7
-5 -2 -5 12 0 14 2 19 5 13 2 -7 2 -19 0 -25z m-1897 -1228 c-34 -50 -68 -90
-76 -90 -10 0 -14 -6 -10 -15 3 -10 -18 -51 -53 -103 -103 -154 -103 -156 -23
-278 69 -106 74 -128 29 -130 -18 -1 -55 -3 -84 -6 -49 -4 -53 -2 -64 23 -6
15 -7 33 -3 40 10 16 13 69 4 69 -11 0 -7 30 4 31 6 0 1 4 -11 9 -22 9 -23 40
-2 40 5 0 9 5 9 10 0 6 -10 10 -22 10 -17 0 -19 3 -10 12 8 8 21 9 46 1 34
-10 34 -10 38 24 4 34 -5 52 -17 34 -4 -7 -15 -6 -30 1 -26 12 -34 28 -13 28
6 0 8 3 4 8 -4 4 -13 7 -19 7 -7 0 -13 8 -15 18 -2 9 1 17 7 17 6 0 11 4 11
10 0 5 -7 7 -15 4 -8 -4 -15 -12 -15 -19 0 -7 -6 -18 -14 -24 -11 -9 -18 -6
-35 18 -30 41 -28 63 4 55 21 -5 25 -3 25 14 0 27 -10 53 -19 48 -4 -3 -7 4
-8 14 -2 25 44 67 58 53 13 -13 42 -6 33 8 -9 15 112 -17 158 -42 23 -12 27
-10 33 23 4 20 0 24 -23 25 -22 1 -23 0 -8 -6 19 -7 19 -8 -2 -13 -12 -4 -22
-3 -22 2 0 4 -9 10 -20 13 -26 7 -37 36 -19 48 8 5 33 9 57 9 26 0 41 4 37 10
-3 6 5 11 19 12 14 0 31 1 38 2 6 1 13 -5 16 -13 3 -8 0 -11 -5 -8 -5 3 -9 -6
-10 -21 -1 -15 1 -20 4 -12 3 8 10 19 15 25 5 5 22 29 39 53 55 76 41 44 -21
-48z m160 43 c0 -10 -6 -13 -16 -9 -9 3 -12 2 -9 -5 4 -5 14 -9 23 -8 43 4 42
6 41 -183 -1 -101 -4 -171 -6 -155 -2 15 -8 25 -13 22 -4 -3 -10 9 -12 25 -3
20 0 30 9 30 10 0 13 28 13 123 0 103 -2 124 -15 124 -9 0 -15 -10 -15 -23 0
-15 -5 -22 -13 -18 -7 2 -18 -7 -25 -23 -10 -25 -11 -23 -8 27 2 30 1 49 -1
43 -7 -19 -31 -16 -42 6 -8 14 -7 22 7 32 14 11 15 11 5 0 -13 -15 -7 -41 9
-41 6 0 7 7 4 16 -3 8 -2 13 2 10 5 -3 14 3 22 14 15 20 40 16 40 -7z m-110
-57 c0 -2 -8 -10 -17 -17 -16 -13 -17 -12 -4 4 13 16 21 21 21 13z m37 -38
c-3 -8 -6 -5 -6 6 -1 11 2 17 5 13 3 -3 4 -12 1 -19z m2113 -17 c0 -14 2 -14
10 -1 5 8 10 10 10 4 0 -19 -12 -23 -31 -11 -23 14 -24 24 -4 24 8 0 15 -7 15
-16z m-2196 -9 c3 -5 -1 -9 -9 -9 -8 0 -12 4 -9 9 3 4 7 8 9 8 2 0 6 -4 9 -8z
m93 -29 c-3 -10 -5 -4 -5 12 0 17 2 24 5 18 2 -7 2 -21 0 -30z m-93 -9 c3 -8
2 -12 -4 -9 -6 3 -10 10 -10 16 0 14 7 11 14 -7z m-364 -58 c0 -3 -4 -8 -10
-11 -5 -3 -10 -1 -10 4 0 6 5 11 10 11 6 0 10 -2 10 -4z m540 -26 c0 -5 -5
-10 -11 -10 -5 0 -7 5 -4 10 3 6 8 10 11 10 2 0 4 -4 4 -10z m-190 -10 c0 -5
-4 -10 -10 -10 -5 0 -10 5 -10 10 0 6 5 10 10 10 6 0 10 -4 10 -10z m-310 -99
c13 -2 9 -52 -5 -57 -20 -8 -53 5 -38 14 8 5 9 12 2 22 -8 13 -10 13 -19 0 -8
-13 -10 -13 -10 1 0 9 2 18 5 20 3 4 40 4 65 0z m147 -43 c-3 -8 -6 -5 -6 6
-1 11 2 17 5 13 3 -3 4 -12 1 -19z m-107 2 c0 -5 -4 -10 -10 -10 -5 0 -10 5
-10 10 0 6 5 10 10 10 6 0 10 -4 10 -10z m478 -59 c-2 -45 -11 -61 -35 -61
-19 0 -3 30 16 31 14 1 14 2 -1 6 -21 5 -24 23 -5 23 9 0 9 2 -1 8 -16 11 -6
39 13 39 11 0 14 -12 13 -46z m-552 -52 c8 -14 -18 -31 -30 -19 -9 9 0 30 14
30 5 0 12 -5 16 -11z m411 -15 c-3 -3 -12 -4 -19 -1 -8 3 -5 6 6 6 11 1 17 -2
13 -5z m-123 -56 c-9 -14 -24 3 -29 33 l-4 24 19 -24 c11 -12 17 -28 14 -33z
m55 -51 c0 -8 -2 -8 -6 1 -4 10 -9 9 -20 -5 -13 -17 -13 -16 -3 5 11 22 31 22
29 -1z m118 -9 c-3 -7 -5 -2 -5 12 0 14 2 19 5 13 2 -7 2 -19 0 -25z m-166
-53 l10 -20 -16 20 c-9 11 -21 29 -26 40 l-10 20 16 -20 c9 -11 21 -29 26 -40z
m99 -10 c7 -9 8 -15 2 -15 -5 0 -12 7 -16 15 -3 8 -4 15 -2 15 2 0 9 -7 16
-15z m-10 -37 c0 -6 -6 -5 -15 2 -8 7 -15 14 -15 16 0 2 7 1 15 -2 8 -4 15
-11 15 -16z m-761 -60 c-5 -18 -14 -34 -19 -36 -6 -2 -10 -10 -10 -17 0 -8 -9
-17 -20 -20 -11 -3 -20 -10 -20 -15 0 -15 -40 -22 -55 -10 -21 17 -1 50 30 50
14 0 25 5 25 11 0 14 56 69 69 69 6 0 6 -12 0 -32z m816 -26 c-3 -3 -11 0 -18
7 -9 10 -8 11 6 5 10 -3 15 -9 12 -12z m55 -66 c0 4 5 3 12 -4 8 -8 9 -15 1
-23 -7 -7 -16 -2 -28 18 -16 24 -16 26 -2 14 9 -7 17 -10 17 -5z m-368 -96
c-2 -8 -5 -23 -7 -32 -2 -9 -21 -34 -42 -56 -21 -22 -45 -53 -53 -68 -8 -16
-31 -46 -51 -66 -20 -20 -35 -39 -33 -41 9 -8 11 -68 3 -73 -5 -3 7 -21 26
-40 19 -19 35 -41 35 -49 0 -8 6 -15 14 -15 7 0 20 -8 27 -17 13 -15 12 -16
-9 -11 -12 4 -38 1 -57 -5 -51 -15 -56 -47 -16 -93 36 -40 40 -90 9 -88 -10 1
-16 -3 -15 -9 3 -14 -71 -63 -177 -116 -83 -42 -91 -49 -91 -74 1 -27 0 -27
-13 -10 -9 12 -12 33 -8 65 3 26 1 50 -3 52 -12 8 6 124 28 181 11 28 25 67
31 88 14 46 104 183 126 191 8 3 13 10 9 15 -17 29 161 264 215 284 26 10 55
2 52 -13z m833 -79 c11 -19 35 -238 38 -343 1 -58 5 -104 10 -101 4 2 7 -1 7
-6 0 -6 -4 -11 -10 -11 -5 0 -10 -8 -10 -17 0 -15 -2 -16 -10 -3 -7 12 -12 12
-29 -4 -11 -10 -18 -23 -15 -27 3 -5 -5 -9 -18 -9 -18 0 -14 -5 22 -26 57 -32
75 -52 82 -89 9 -42 -1 -60 -19 -38 -14 17 -14 17 -9 1 3 -10 2 -18 -2 -18 -4
0 -13 -14 -20 -30 -8 -16 -19 -30 -26 -30 -7 0 -37 -28 -66 -62 -29 -35 -59
-68 -67 -74 -7 -6 -11 -14 -8 -17 3 -4 2 -5 -1 -2 -4 2 -15 0 -25 -5 -25 -14
-32 19 -70 345 -15 127 -14 144 5 163 13 14 12 18 -15 41 -34 30 -59 125 -59
228 0 90 20 121 85 128 152 16 222 18 230 6z m-1637 -29 c2 -6 -6 -19 -17 -29
-12 -9 -21 -24 -21 -31 0 -10 -7 -12 -25 -8 -29 7 -32 -1 -7 -21 9 -8 11 -12
5 -8 -8 4 -13 0 -13 -10 0 -14 -58 -44 -69 -36 -2 1 -7 -1 -10 -7 -3 -5 -19
-12 -36 -16 -19 -4 -25 -3 -16 2 9 7 10 11 2 17 -8 4 1 19 26 41 20 19 41 34
45 34 4 0 8 6 8 14 0 9 10 12 30 10 28 -3 30 -2 19 17 -8 15 -8 19 0 15 6 -4
11 -3 11 2 0 10 41 32 54 28 6 -1 11 -7 14 -14z m2202 -143 c0 -12 52 -106
116 -208 153 -243 149 -238 137 -226 -24 21 -293 460 -293 477 0 17 1 17 20
-2 11 -11 20 -30 20 -41z m-1520 -254 c0 -8 -6 -12 -14 -9 -8 3 -12 12 -9 20
6 17 23 9 23 -11z"/>
<path d="M1918 2593 c6 -2 18 -2 25 0 6 3 1 5 -13 5 -14 0 -19 -2 -12 -5z"/>
<path d="M1960 2590 c0 -5 5 -10 10 -10 6 0 10 5 10 10 0 6 -4 10 -10 10 -5 0
-10 -4 -10 -10z"/>
<path d="M1930 2454 c0 -8 5 -12 10 -9 6 4 8 11 5 16 -9 14 -15 11 -15 -7z"/>
<path d="M2515 1290 c-4 -6 11 -7 42 -3 63 8 67 13 10 13 -25 0 -49 -4 -52
-10z"/>
<path d="M1910 5085 c0 -5 5 -17 10 -25 5 -8 10 -10 10 -5 0 6 -5 17 -10 25
-5 8 -10 11 -10 5z"/>
<path d="M1665 4819 c-4 -6 -21 -9 -38 -7 -18 2 -32 -2 -34 -9 -3 -9 5 -13 24
-13 16 0 36 -9 46 -20 21 -25 88 -28 107 -4 11 13 10 16 -8 21 -12 3 -22 11
-22 18 0 23 -63 35 -75 14z"/>
<path d="M1201 4250 c-52 -12 -64 -39 -30 -68 12 -9 30 -25 40 -36 10 -10 25
-16 34 -13 9 4 24 -2 36 -14 17 -17 28 -19 73 -14 74 10 84 17 63 49 -10 14
-30 34 -45 43 -15 10 -29 21 -32 24 -5 8 -91 39 -100 38 -3 -1 -20 -5 -39 -9z"/>
<path d="M1580 3986 c0 -24 -14 -34 -59 -42 -35 -7 -81 -50 -124 -114 l-36
-55 32 -14 c18 -8 64 -16 102 -19 l71 -4 18 40 c10 23 24 42 31 44 20 5 105
108 105 128 0 24 -12 31 -53 32 -17 0 -42 7 -54 14 -30 19 -33 18 -33 -10z"/>
<path d="M2215 3481 c-3 -5 -1 -12 5 -16 5 -3 10 1 10 9 0 18 -6 21 -15 7z"/>
<path d="M5490 3361 l-65 -28 -82 -174 c-45 -96 -77 -175 -73 -177 5 -2 31 4
59 12 l50 15 3 -25 c5 -39 22 -33 29 11 3 22 16 62 28 88 11 27 18 54 14 59
-3 6 -2 8 4 5 13 -8 58 87 48 104 -5 7 -4 10 2 6 6 -4 16 6 23 21 52 111 48
120 -40 83z"/>
<path d="M2760 3305 c0 -2 25 -23 55 -45 77 -57 160 -142 201 -206 19 -30 37
-54 40 -54 5 0 -18 43 -68 125 -10 17 -18 42 -18 57 0 25 -10 33 -100 78 -99
50 -110 54 -110 45z"/>
<path d="M1454 3230 c-54 -12 -133 -67 -134 -93 0 -18 68 -47 112 -47 46 0 49
2 93 58 58 74 59 92 3 91 -24 -1 -57 -4 -74 -9z"/>
<path d="M4650 3228 c0 -22 51 -128 62 -128 13 0 9 11 -27 80 -19 36 -34 57
-35 48z"/>
<path d="M2770 3202 c0 -4 29 -31 65 -60 80 -63 85 -53 9 17 -53 49 -74 61
-74 43z"/>
<path d="M3403 3160 c0 -25 2 -35 4 -22 2 12 2 32 0 45 -2 12 -4 2 -4 -23z"/>
<path d="M1396 3070 c-55 -5 -61 -9 -105 -56 -34 -37 -52 -69 -69 -122 -25
-78 -23 -92 12 -92 46 0 105 58 151 150 15 30 39 70 53 88 14 18 23 34 21 35
-2 1 -30 0 -63 -3z"/>
<path d="M3304 3058 l-19 -23 23 19 c12 11 22 21 22 23 0 8 -8 2 -26 -19z"/>
<path d="M5176 3024 c-17 -12 -17 -14 -4 -14 9 0 20 5 23 11 11 17 2 18 -19 3z"/>
<path d="M3060 2983 c0 -6 8 -17 18 -24 16 -13 16 -13 2 6 -8 11 -16 22 -17
24 -2 2 -3 0 -3 -6z"/>
<path d="M2325 2880 c-8 -13 5 -13 25 0 13 8 13 10 -2 10 -9 0 -20 -4 -23 -10z"/>
<path d="M2371 2886 c10 -9 79 -14 74 -5 -4 5 -22 9 -42 9 -20 0 -34 -2 -32
-4z"/>
<path d="M3085 2870 c7 -26 35 -62 35 -45 0 6 -9 24 -21 40 -19 28 -20 28 -14
5z"/>
<path d="M2294 2855 c-5 -20 -9 -23 -15 -13 -6 8 -9 9 -9 1 0 -6 -7 -19 -16
-27 -19 -20 -28 -76 -11 -76 9 0 8 -3 -1 -9 -10 -6 -9 -11 4 -22 16 -12 17
-12 9 1 -7 13 -6 13 7 2 13 -10 16 -9 21 9 4 13 10 18 17 14 9 -6 9 -9 1 -15
-29 -17 23 -28 154 -33 l140 -5 -143 10 c-108 8 -142 14 -138 23 2 7 -4 21
-14 30 -11 10 -16 24 -13 38 5 18 3 20 -8 10 -21 -21 -34 -15 -14 7 10 11 22
17 26 14 5 -3 9 3 9 14 0 24 8 32 27 25 10 -4 14 -18 12 -49 -2 -24 0 -46 3
-49 3 -4 5 19 5 49 -1 31 0 58 3 59 3 2 -1 2 -9 0 -7 -2 -20 2 -27 8 -10 8
-15 5 -20 -16z m-4 -109 c0 -2 -7 -7 -16 -10 -8 -3 -12 -2 -9 4 6 10 25 14 25
6z"/>
<path d="M2528 2873 c7 -3 16 -2 19 1 4 3 -2 6 -13 5 -11 0 -14 -3 -6 -6z"/>
<path d="M2568 2873 c7 -3 16 -2 19 1 4 3 -2 6 -13 5 -11 0 -14 -3 -6 -6z"/>
<path d="M3146 2767 c3 -10 9 -15 12 -12 3 3 0 11 -7 18 -10 9 -11 8 -5 -6z"/>
<path d="M6135 2769 c-22 -5 -50 -11 -61 -14 -21 -5 -45 -57 -161 -353 -4 -10
10 -12 62 -10 l68 3 70 172 c39 94 73 170 77 168 3 -2 5 8 5 21 0 26 -1 26
-60 13z"/>
<path d="M2360 2732 c0 -5 7 -9 15 -9 8 0 12 4 9 9 -3 4 -9 8 -15 8 -5 0 -9
-4 -9 -8z"/>
<path d="M2658 2673 c17 -2 47 -2 65 0 17 2 3 4 -33 4 -36 0 -50 -2 -32 -4z"/>
<path d="M2366 2660 c28 -4 127 -10 220 -13 136 -4 148 -4 59 3 -181 13 -336
19 -279 10z"/>
<path d="M2823 2663 c15 -2 39 -2 55 0 15 2 2 4 -28 4 -30 0 -43 -2 -27 -4z"/>
<path d="M2798 2633 c23 -2 59 -2 80 0 20 2 1 4 -43 4 -44 0 -61 -2 -37 -4z"/>
<path d="M2360 2403 l0 -218 280 3 280 3 -1 22 c-1 17 -2 18 -6 4 -4 -16 -24
-17 -274 -17 l-269 1 0 204 0 204 58 4 57 3 -62 2 -63 2 0 -217z"/>
<path d="M2538 2603 c23 -2 61 -2 85 0 23 2 4 4 -43 4 -47 0 -66 -2 -42 -4z"/>
<path d="M2973 2570 c0 -25 2 -35 4 -22 2 12 2 32 0 45 -2 12 -4 2 -4 -23z"/>
<path d="M2743 2593 c15 -2 39 -2 55 0 15 2 2 4 -28 4 -30 0 -43 -2 -27 -4z"/>
<path d="M2971 2504 c0 -11 3 -14 6 -6 3 7 2 16 -1 19 -3 4 -6 -2 -5 -13z"/>
<path d="M3058 2483 c6 -2 18 -2 25 0 6 3 1 5 -13 5 -14 0 -19 -2 -12 -5z"/>
<path d="M2912 2390 c0 -14 2 -19 5 -12 2 6 2 18 0 25 -3 6 -5 1 -5 -13z"/>
<path d="M6037 2376 c-7 -18 3 -56 14 -56 5 0 9 16 9 35 0 35 -13 47 -23 21z"/>
<path d="M2971 2354 c0 -11 3 -14 6 -6 3 7 2 16 -1 19 -3 4 -6 -2 -5 -13z"/>
<path d="M2971 2244 c0 -11 3 -14 6 -6 3 7 2 16 -1 19 -3 4 -6 -2 -5 -13z"/>
<path d="M3028 2233 c7 -3 16 -2 19 1 4 3 -2 6 -13 5 -11 0 -14 -3 -6 -6z"/>
<path d="M2320 2112 l0 -62 48 2 47 1 -43 4 -43 4 2 49 c2 28 0 53 -4 57 -4 3
-7 -21 -7 -55z"/>
<path d="M2458 2163 c7 -3 16 -2 19 1 4 3 -2 6 -13 5 -11 0 -14 -3 -6 -6z"/>
<path d="M2603 2163 c59 -2 155 -2 215 0 59 1 10 3 -108 3 -118 0 -167 -2
-107 -3z"/>
<path d="M2363 2145 c0 -8 4 -15 9 -15 4 0 8 4 8 9 0 6 -4 12 -8 15 -5 3 -9
-1 -9 -9z"/>
<path d="M2563 2063 c43 -2 110 -2 150 0 40 1 5 3 -78 3 -82 0 -115 -2 -72 -3z"/>
<path d="M5407 2059 c7 -7 15 -10 18 -7 3 3 -2 9 -12 12 -14 6 -15 5 -6 -5z"/>
<path d="M4363 2048 c-7 -9 16 -63 81 -186 64 -122 93 -167 97 -155 4 12 -19
68 -62 155 -91 181 -104 202 -116 186z"/>
<path d="M5460 2034 c0 -2 9 -8 20 -14 11 -6 20 -7 20 -2 0 6 -9 12 -20 15
-11 3 -20 3 -20 1z"/>
<path d="M4207 2017 c-35 -11 -37 -13 -24 -32 8 -11 60 -107 116 -213 93 -174
102 -197 99 -235 -3 -23 -8 -50 -12 -59 -12 -28 7 -21 52 17 46 40 104 146 84
153 -38 12 -79 69 -158 217 -56 104 -95 165 -104 164 -8 0 -32 -6 -53 -12z"/>
<path d="M5310 1859 c-41 -94 -76 -176 -78 -183 -2 -9 15 -16 49 -22 49 -9 53
-11 64 -49 7 -22 45 -110 85 -195 40 -85 84 -180 98 -210 14 -30 27 -49 30
-42 2 6 -37 100 -87 207 -75 162 -91 205 -91 245 0 26 -4 50 -9 52 -5 2 12 55
38 118 26 63 55 134 64 157 l17 43 -50 25 c-27 14 -51 25 -52 25 -2 0 -37 -77
-78 -171z"/>
<path d="M2730 2013 c0 -6 8 -17 18 -24 16 -13 16 -13 2 6 -8 11 -16 22 -17
24 -2 2 -3 0 -3 -6z"/>
<path d="M2818 2013 c23 -2 59 -2 80 0 20 2 1 4 -43 4 -44 0 -61 -2 -37 -4z"/>
<path d="M2445 1993 c-5 -15 -4 -16 6 -5 21 20 34 14 15 -7 -11 -12 -15 -27
-11 -40 6 -19 2 -20 -70 -17 -63 2 -75 0 -75 -13 0 -9 -7 -29 -15 -45 -9 -16
-13 -31 -10 -34 7 -7 9 -3 26 43 l15 40 77 -2 c42 -1 77 0 77 3 0 2 -5 13 -12
24 -10 15 -9 22 6 39 10 11 28 22 40 24 11 2 2 5 -20 6 -32 1 -44 -3 -49 -16z"/>
<path d="M2562 1985 c-10 -22 -9 -25 8 -25 11 0 20 5 20 11 0 5 -5 7 -11 3 -7
-4 -10 -1 -7 7 3 8 25 16 54 20 l49 6 -51 1 c-45 2 -52 -1 -62 -23z"/>
<path d="M2686 2002 c6 -4 14 -14 17 -22 4 -10 6 -8 6 8 1 15 -5 22 -16 22
-11 0 -14 -3 -7 -8z"/>
<path d="M2404 1970 c2 -16 20 -14 24 2 3 10 2 10 -6 -1 -7 -9 -11 -10 -15 -2
-4 7 -5 8 -3 1z"/>
<path d="M2490 1970 c-8 -5 -12 -12 -9 -15 4 -3 12 1 19 10 14 17 11 19 -10 5z"/>
<path d="M2658 1973 c6 -2 18 -2 25 0 6 3 1 5 -13 5 -14 0 -19 -2 -12 -5z"/>
<path d="M2960 1976 c0 -2 7 -7 16 -10 8 -3 12 -2 9 4 -6 10 -25 14 -25 6z"/>
<path d="M2798 1933 c12 -2 30 -2 40 0 9 3 -1 5 -23 4 -22 0 -30 -2 -17 -4z"/>
<path d="M3028 1913 c7 -3 16 -2 19 1 4 3 -2 6 -13 5 -11 0 -14 -3 -6 -6z"/>
<path d="M2262 1862 l-21 -18 30 -26 c32 -29 39 -26 12 4 -14 16 -15 23 -5 39
15 24 11 24 -16 1z"/>
<path d="M2808 1823 c12 -2 32 -2 45 0 12 2 2 4 -23 4 -25 0 -35 -2 -22 -4z"/>
<path d="M2643 1813 c15 -2 39 -2 55 0 15 2 2 4 -28 4 -30 0 -43 -2 -27 -4z"/>
<path d="M2473 1803 c20 -2 54 -2 75 0 20 2 3 4 -38 4 -41 0 -58 -2 -37 -4z"/>
<path d="M2316 1792 c-2 -4 12 -6 32 -4 56 5 62 10 15 11 -23 1 -44 -3 -47 -7z"/>
<path d="M2251 1761 c-8 -15 -7 -20 5 -25 8 -3 13 -10 9 -15 -3 -5 6 -21 20
-35 14 -14 25 -21 25 -16 0 5 -7 15 -15 24 -20 20 -19 37 3 30 14 -5 15 -4 2
5 -13 10 -13 12 0 21 13 8 12 10 -2 10 -11 0 -18 -7 -18 -17 0 -15 -2 -15 -9
-4 -5 8 -7 20 -4 28 8 20 -5 16 -16 -6z"/>
<path d="M3622 1730 c0 -14 2 -19 5 -12 2 6 2 18 0 25 -3 6 -5 1 -5 -13z"/>
<path d="M5180 1680 c-8 -5 -28 -12 -45 -16 -16 -3 -24 -9 -18 -11 16 -6 81
15 88 28 8 11 -5 11 -25 -1z"/>
<path d="M4560 1660 c0 -26 48 -50 102 -50 44 0 327 26 387 36 18 3 31 7 28
10 -2 2 -102 -5 -222 -16 -199 -19 -220 -19 -242 -5 -13 9 -27 23 -30 31 -8
21 -23 17 -23 -6z"/>
<path d="M6546 1059 c-34 -40 -76 -122 -76 -148 0 -31 29 -52 64 -49 28 3 34
9 55 63 14 34 25 82 25 110 1 44 -2 50 -20 53 -14 2 -31 -8 -48 -29z"/>
<path d="M4600 686 c0 -11 30 -66 36 -66 2 0 -3 15 -12 33 -19 36 -24 44 -24
33z"/>
<path d="M4640 600 c0 -5 5 -10 11 -10 5 0 7 5 4 10 -3 6 -8 10 -11 10 -2 0
-4 -4 -4 -10z"/>
</g>
</svg>
